<?xml version="1.0" standalone="no"?>
<!DOCTYPE svg PUBLIC "-//W3C//DTD SVG 20010904//EN"
 "http://www.w3.org/TR/2001/REC-SVG-20010904/DTD/svg10.dtd">
<svg version="1.0" xmlns="http://www.w3.org/2000/svg"
 width="889.000000pt" height="889.000000pt" viewBox="0 0 889.000000 889.000000"
 preserveAspectRatio="xMidYMid meet">
<metadata>
Created by potrace 1.14, written by Peter Selinger 2001-2017
</metadata>
<g transform="translate(0.000000,889.000000) scale(0.100000,-0.100000)"
fill="#000000" stroke="none">
<path d="M1470 8813 c-6 -27 -16 -59 -22 -73 -22 -56 -98 -290 -98 -304 0 -8
-18 -68 -40 -133 -82 -240 -118 -349 -124 -378 -15 -67 -108 -354 -177 -545
-38 -105 -62 -180 -120 -375 -12 -38 -30 -85 -40 -103 -26 -45 -24 -55 15
-136 19 -39 40 -89 46 -111 14 -45 44 -111 131 -293 32 -68 59 -126 59 -128 0
-3 11 -30 25 -60 14 -30 25 -59 25 -65 0 -6 6 -23 14 -37 33 -65 76 -161 76
-171 0 -6 24 -61 54 -123 64 -134 136 -304 136 -323 0 -13 45 -113 127 -279
24 -49 42 -93 40 -99 -1 -5 -110 -8 -264 -8 l-261 2 -46 -58 c-25 -32 -59 -78
-74 -102 -15 -23 -52 -73 -83 -110 -30 -36 -78 -100 -106 -141 -28 -41 -75
-102 -105 -135 -30 -33 -62 -74 -71 -91 -9 -17 -31 -47 -49 -67 -18 -19 -57
-66 -86 -104 -29 -37 -87 -110 -130 -162 -42 -51 -83 -103 -91 -115 -20 -32
-7 -85 33 -132 18 -21 36 -50 41 -63 4 -13 13 -31 21 -40 35 -43 66 -91 90
-141 14 -30 40 -73 58 -95 36 -45 83 -120 113 -180 11 -22 48 -80 83 -130 85
-121 110 -162 110 -178 0 -8 25 -47 55 -88 30 -41 69 -103 86 -138 18 -35 47
-83 65 -106 50 -66 117 -172 163 -260 24 -44 64 -109 91 -145 26 -36 58 -85
70 -110 13 -25 40 -71 61 -102 22 -31 43 -67 48 -80 5 -13 43 -74 85 -136 42
-63 84 -130 94 -151 9 -20 44 -78 77 -129 l60 -92 450 0 450 0 38 -25 c20 -14
37 -31 37 -37 0 -6 28 -42 63 -79 34 -37 96 -106 137 -154 41 -48 104 -119
140 -158 36 -40 78 -88 92 -107 14 -19 45 -55 67 -78 23 -24 58 -65 79 -90 20
-26 54 -62 75 -81 20 -18 54 -57 75 -85 20 -28 55 -70 77 -92 121 -126 146
-154 174 -196 18 -26 51 -63 74 -83 23 -20 59 -57 80 -83 21 -26 45 -55 52
-64 14 -17 54 -18 587 -18 l573 0 22 32 c13 18 51 62 86 98 35 36 108 117 164
180 55 63 113 126 127 140 15 14 34 39 42 56 8 17 49 64 90 103 40 40 74 77
74 83 0 6 29 43 65 82 35 39 91 100 124 136 60 66 131 148 209 243 23 29 91
103 150 164 l107 113 431 0 c402 0 432 1 438 18 8 21 21 42 64 104 17 26 32
51 32 56 0 5 13 27 28 48 15 21 63 98 106 169 44 72 98 159 121 195 24 36 52
83 63 106 12 23 37 63 58 89 20 26 69 107 109 179 41 72 82 140 92 152 25 28
73 102 73 112 0 9 84 139 105 162 7 8 27 43 44 77 17 34 44 76 60 94 16 17 32
43 36 57 3 13 27 56 53 94 26 38 54 82 62 96 8 15 29 47 46 72 17 25 41 64 52
87 12 23 52 87 89 143 38 56 84 131 103 166 20 36 40 68 46 72 18 13 74 96 74
110 0 8 -27 43 -60 79 -33 35 -60 70 -60 78 0 7 -13 26 -28 42 -35 35 -112
129 -138 168 -10 16 -28 39 -39 50 -11 12 -47 57 -80 100 -33 42 -65 82 -70
89 -17 18 -89 111 -105 136 -8 13 -41 55 -72 94 -32 39 -91 117 -132 173 -46
63 -84 105 -98 108 -13 3 -130 5 -261 3 -272 -3 -259 -9 -208 91 15 31 54 117
85 191 32 74 75 176 96 225 21 50 41 100 45 112 3 11 39 88 79 170 40 81 76
162 79 178 3 17 42 109 87 205 44 96 87 189 94 205 8 17 40 84 71 150 87 183
106 240 94 273 -6 15 -17 54 -24 87 -8 33 -35 116 -60 185 -25 69 -52 146 -59
172 -8 25 -17 52 -21 58 -4 6 -13 33 -20 58 -8 26 -36 112 -63 192 -65 189
-91 273 -107 340 -7 30 -31 107 -54 170 -23 63 -56 158 -72 210 -17 52 -39
120 -49 150 -10 30 -37 123 -60 205 -23 83 -46 154 -51 159 -5 6 -50 -29 -113
-90 -57 -54 -154 -144 -216 -199 -61 -55 -133 -120 -159 -145 -160 -152 -260
-246 -351 -330 -131 -120 -224 -208 -357 -339 -101 -98 -109 -110 -178 -245
-40 -77 -88 -170 -107 -206 -20 -36 -61 -114 -93 -175 -32 -60 -66 -122 -77
-138 -11 -15 -30 -54 -43 -87 -13 -33 -33 -73 -45 -90 l-21 -30 -110 0 -109 0
0 184 0 183 -37 7 c-21 3 -469 6 -995 6 l-958 0 0 -184 c0 -102 -4 -187 -8
-190 -4 -2 -51 -6 -103 -7 l-94 -2 -30 54 c-45 80 -69 125 -115 218 -23 46
-64 120 -92 163 -27 43 -58 100 -68 127 -11 27 -32 68 -48 92 -30 45 -102 189
-102 205 0 5 -23 29 -52 54 -28 25 -95 87 -147 139 -53 52 -126 119 -162 150
-70 59 -396 358 -464 426 -22 22 -83 78 -135 124 -107 96 -161 146 -274 255
-43 42 -82 76 -86 76 -4 0 -13 -21 -20 -47z m4508 -3757 c4 -62 -42 -337 -68
-405 -42 -109 -58 -133 -160 -244 -115 -124 -331 -195 -649 -214 -99 -5 -103
-5 -97 14 20 61 38 137 50 203 16 94 39 163 86 265 54 116 81 152 171 226 66
55 96 73 172 99 94 33 452 111 482 105 6 -1 11 -23 13 -49z m-2770 9 c127 -21
298 -78 357 -120 28 -20 64 -45 81 -55 36 -24 110 -124 146 -200 32 -66 82
-230 99 -320 6 -36 18 -85 25 -109 24 -77 27 -75 -90 -68 -238 15 -386 50
-520 123 -67 36 -94 59 -155 130 -79 92 -136 199 -152 287 -28 149 -57 343
-52 350 7 11 137 2 261 -18z m-1248 -349 c0 -3 -33 -21 -72 -41 -40 -21 -107
-61 -148 -90 -41 -28 -115 -73 -165 -100 -49 -26 -103 -58 -120 -70 -16 -12
-59 -35 -95 -52 -67 -32 -118 -68 -110 -76 3 -3 43 -30 90 -61 201 -132 233
-155 241 -169 5 -8 33 -26 62 -41 30 -14 70 -41 89 -60 19 -19 53 -43 75 -54
22 -12 70 -45 106 -74 106 -84 138 -107 202 -144 33 -19 82 -54 109 -78 27
-24 73 -57 103 -72 30 -15 67 -39 81 -54 15 -14 44 -36 64 -48 20 -13 59 -41
85 -63 26 -21 58 -39 70 -39 13 0 63 13 111 29 192 63 405 132 545 176 82 25
189 61 238 79 l89 34 0 -666 0 -665 58 -56 c100 -96 213 -195 243 -214 16 -11
29 -23 29 -28 0 -4 41 -41 90 -80 50 -40 90 -75 90 -78 0 -12 118 -119 200
-182 25 -18 66 -54 91 -79 25 -25 57 -51 72 -59 26 -14 28 -12 112 65 47 43
125 113 173 154 48 41 114 101 147 133 102 97 147 138 260 237 137 119 174
157 186 187 5 14 9 303 9 667 0 353 3 645 6 649 3 3 29 -4 58 -17 58 -25 149
-56 346 -117 74 -23 144 -48 155 -55 11 -7 76 -29 145 -49 69 -21 146 -46 172
-57 l47 -20 34 36 c19 20 41 36 49 36 8 0 22 8 31 18 15 16 117 89 237 169 30
20 74 53 97 74 23 21 57 44 75 52 18 8 82 51 143 97 60 45 119 86 130 90 11 5
38 25 60 45 22 20 60 48 85 63 25 14 81 53 125 87 44 34 112 83 150 111 89 62
174 127 175 134 0 3 -19 5 -43 5 -54 0 -110 25 -219 98 -48 31 -100 63 -115
70 -15 7 -41 21 -58 31 -113 72 -133 86 -144 100 -8 9 -18 16 -23 16 -13 0
-110 48 -123 61 -5 5 130 9 353 9 l361 0 74 -97 c41 -54 95 -120 121 -148 27
-27 55 -63 63 -80 8 -16 32 -48 53 -70 21 -22 75 -89 121 -150 46 -60 86 -112
90 -115 3 -3 13 -18 22 -35 8 -16 27 -41 41 -54 14 -14 26 -30 26 -36 0 -7
-23 -48 -51 -91 -28 -43 -54 -85 -57 -93 -3 -9 -17 -32 -32 -51 -15 -19 -39
-60 -53 -90 -15 -30 -49 -86 -76 -125 -26 -38 -67 -106 -91 -150 -23 -44 -55
-93 -70 -110 -16 -16 -46 -64 -68 -105 -47 -91 -105 -186 -131 -214 -10 -12
-38 -55 -61 -96 -24 -41 -63 -105 -86 -141 -24 -37 -51 -84 -61 -105 -10 -22
-40 -68 -67 -104 -26 -35 -56 -80 -64 -100 -9 -19 -45 -79 -79 -133 -35 -54
-72 -115 -83 -135 -54 -99 -72 -128 -89 -147 -10 -11 -31 -44 -45 -72 l-26
-53 -424 0 -424 0 -36 -43 c-109 -127 -199 -228 -260 -292 -37 -40 -75 -87
-84 -105 -8 -17 -33 -46 -55 -63 -21 -18 -46 -45 -54 -61 -8 -16 -45 -59 -82
-95 -37 -36 -77 -82 -89 -101 -11 -19 -46 -59 -77 -89 -30 -30 -55 -58 -55
-62 0 -10 -194 -231 -240 -274 -17 -16 -39 -43 -47 -60 -9 -16 -50 -67 -91
-112 l-75 -83 -428 0 -427 0 -69 80 c-37 45 -81 99 -98 121 -16 23 -67 80
-113 129 -46 48 -93 101 -105 118 -28 40 -223 265 -307 356 -36 39 -77 87 -90
107 -13 20 -36 45 -52 55 -16 10 -41 37 -56 59 -27 40 -121 147 -258 294 -39
42 -77 86 -83 99 l-12 22 -452 0 -453 0 -29 57 c-16 31 -52 92 -81 134 -29 42
-60 94 -69 115 -8 21 -34 62 -56 92 -22 29 -59 88 -81 130 -22 42 -48 86 -57
97 -31 36 -97 139 -125 195 -15 30 -43 74 -62 97 -19 23 -40 57 -46 75 -11 33
-43 84 -63 103 -15 13 -64 92 -105 170 -41 75 -135 221 -150 230 -6 4 -21 30
-34 58 -13 29 -40 78 -62 110 -47 70 -89 138 -126 204 -48 83 -109 177 -130
200 -18 19 -19 26 -9 50 6 15 28 46 48 68 20 22 56 72 81 110 25 39 68 95 96
126 28 31 71 85 96 120 25 35 72 93 106 129 33 36 75 90 93 120 18 30 45 67
59 83 l26 27 368 0 c202 0 368 -2 368 -4z"/>
<path d="M5670 2158 c-83 -140 -80 -136 -123 -199 -21 -31 -42 -72 -47 -91 -6
-19 -28 -59 -51 -89 -22 -30 -67 -109 -99 -175 -73 -151 -78 -156 -94 -81 -6
27 -7 27 -94 27 -48 0 -93 -4 -101 -9 -12 -8 -12 -25 -3 -107 6 -54 9 -101 6
-104 -3 -3 -245 -4 -537 -3 l-532 2 -3 103 c-3 96 -5 105 -29 130 -34 36 -51
35 -93 -2 -35 -31 -102 -51 -135 -40 -11 4 -29 21 -40 39 -11 18 -35 55 -53
83 -19 28 -39 69 -46 92 -6 22 -17 41 -24 41 -16 0 -87 89 -108 135 -22 48
-74 129 -103 159 -13 15 -34 42 -47 63 -31 49 -44 55 -44 21 0 -35 49 -138
123 -259 30 -50 62 -107 71 -127 8 -21 30 -61 49 -90 56 -87 64 -101 71 -131
4 -16 25 -54 47 -84 21 -30 39 -60 39 -67 0 -6 16 -30 35 -52 19 -23 35 -44
35 -48 0 -3 17 -29 39 -58 21 -29 51 -74 66 -100 l27 -48 57 3 56 3 3 58 3 57
549 0 550 0 0 -29 c0 -16 4 -41 10 -55 8 -23 15 -26 59 -26 l49 0 70 118 c38
64 77 133 87 152 10 19 29 50 43 69 14 19 52 89 85 155 33 67 73 140 88 163
16 23 29 44 29 48 0 3 34 76 76 162 113 232 118 254 64 283 -17 9 -26 -1 -80
-92z"/>
</g>
</svg>
